<svg xmlns="http://www.w3.org/2000/svg" viewBox="0 0 1061.63 1078.4"><defs><style>.cls-1{fill:#00aeef;}.cls-2{fill:#3a4144;}.cls-3{fill:#899299;}</style></defs><title>WikiSnap</title><g id="Layer_2" data-name="Layer 2"><g id="Layer_1-2" data-name="Layer 1"><path class="cls-1" d="M304.45,1052.7c1.08-12.06,6-23.1,10.74-33.82,8.4-19.18,15.77-38.75,23.48-58.18,28.72-72.36,56.93-144.93,85.25-217.45q30.33-77.65,60.48-155.37c.49-1.24,1.11-2.43,1.53-3.69,1.58-4.81,1-5.58-4.32-6-2-.14-4,0-6,0q-95.89-.19-191.8-.4c-14,0-14-.21-8-13q50-106.11,100-212.26Q427,243.65,478,134.67q29.83-63.75,59.4-127.61c2.1-4.56,4.94-6.85,9.74-7,2.33-.06,4.67-.07,7-.07H784.88c12.7,0,13.32.92,7.27,11.7-13.51,24.06-27.71,47.77-40.52,72.19-16.55,31.53-34.6,62.21-51.81,93.36-23,41.65-46.53,83-69.76,124.56-15.91,28.46-31.9,56.89-47.44,85.55-6.66,12.29-13.56,24.44-20.5,36.57a54,54,0,0,0-3.62,7.11c-1.82,4.67-1,6,4,6.41,2.64.24,5.32.11,8,.11q104.88,0,209.78.09c3.51,0,8.48-1.81,10.28,1.41,2.23,4-2.58,7.06-4.85,9.92-32.94,41.36-66.14,82.5-99.13,123.82-28,35.09-55.75,70.4-83.75,105.5-23.65,29.65-47.63,59-71.23,88.73C502,804.28,472.7,841.75,443.15,879q-39.36,49.66-78.94,99.16c-15.32,19.24-30.78,38.37-45.85,57.8-4.46,5.74-7.72,12.41-13.88,16.72Z"/><path class="cls-2" d="M1007.67,515.16c1.27-17.11-1.92-33.86-4.52-50.59-12-77-41.42-146.76-86.85-209.92-8.54-11.87-8.59-12-21-4.62a589,589,0,0,1-95,45.73,4.42,4.42,0,0,1-2.46-2.85q-7.89-22.8-15.86-45.57c31.49-11.75,61.42-26.68,91.1-44.31A369.47,369.47,0,0,0,839,170.36c-18.78-16-38.12-31.16-59.1-44.18-6.51-4-6.34-4.2-3.07-10.55,6.22-12.1,14.27-23.21,19.49-35.86,1.4-3.39,3.56-1.91,5.62-.72,10.63,6.14,20.54,13.35,30.51,20.47a535.22,535.22,0,0,1,79.4,69.32c30.74,32.69,58,68,79.58,107.56,13,23.8,25.31,47.91,34.69,73.43a605,605,0,0,1,28.09,105.68,493.66,493.66,0,0,1,5.06,133.18,532.27,532.27,0,0,1-38.42,154A560.28,560.28,0,0,1,955,858.86,534.78,534.78,0,0,1,848.12,968c-21.94,16.77-44.62,32.36-68.58,45.81-18.19,10.22-37.57,18.42-56.69,27-21.94,9.81-45.2,15-67.85,22.37-11.11,3.61-22.44,3.93-33.51,6.73s-22.92,3.7-34.44,5.27c-10.28,1.41-20.58,1.22-30.84,2.19a258.61,258.61,0,0,1-32.93,1c-10.64-.37-21.3-.8-31.91-1.63a479.18,479.18,0,0,1-61.14-8.71c-11.55-2.43-23.63-2.64-34.57-7.62-10.68-4.86-22.51-6.11-33.15-11-3.44-1.6-5.19-3.63-2.4-6.65,20.72-22.5,37.73-48.06,58.45-71.8,2.42,2.28,4.5,4.24,6.57,6.21,19.2,18.26,39.91,34.17,65.56,42.47,5,1.62,9.86,4.18,15.42,3,16.65,6.1,33.34,5.28,50,.28,7.31.91,13.68-2.47,20.13-4.86,21.57-8,39.68-21.33,56.12-37.17,29.81-28.74,52.24-62.8,71.4-99.18,10.07-19.12,19.49-38.55,26.85-58.91.68-1.88,1.68-3.62,1.6-5.7C740.09,801.67,745.1,785.36,750,769c.56-.2,1.11-.42,1.66-.68,1.9.48,3.86.82,5.71,1.47,14.23,5,28.43,10,42.65,15.05,1.75.89,3.46,1.91,5.27,2.65A743.79,743.79,0,0,1,899.7,834c4.66,2.73,6.95,2.53,10.31-1.86A482.15,482.15,0,0,0,1003.37,614c2.49-16,5.74-32.08,4.11-48.49C1009.44,548.73,1010.23,532,1007.67,515.16ZM689.13,997c66.74-20.29,156.77-86.25,180.74-120.64-27.84-16.13-57-29.42-87.18-41.9C758.74,892.55,730.14,947.4,689.13,997Z"/><path class="cls-2" d="M278.28,834.75c-30,10.9-58.76,24.56-86.81,39.75-.51.28-.8,1-1.52,1.85a405.74,405.74,0,0,0,40.36,38.39,441.69,441.69,0,0,0,61.67,44c4.69,2.74,5.5,5.09,3.32,10.2-6.06,14.19-11.4,28.7-17.12,43.32-8-4.63-15.58-9.15-23.29-13.46-5.19-2.9-9.23-7.38-14.08-10.51-6.34-4.09-11.83-9.27-18.2-13.17-19.17-11.71-34.88-27.43-51-42.73-16.46-15.57-32-32-46.92-49-14.53-16.53-26.54-35.1-38.31-53.72-8.76-13.84-17.66-27.53-25-42.33-9.66-19.59-19.93-39-27.51-59.39C25,704,18.4,679.16,12.66,654.14,1.48,605.45-1.86,556.2.94,506.48c.8-14.26,3.13-28.43,4.73-42.64C9.68,428.17,20,394,31.58,360.3c7.9-23,18.16-45.07,28.84-67,13.92-28.55,32.06-54.43,50.33-80.11,10.87-15.29,24.79-28.38,37.15-42.63,17.35-20,37.7-36.67,58-53.5,23.69-19.65,49.65-35.83,76.25-51C331.42,38,384.35,19.94,440.06,9.48c15.66-2.95,31.4-5,47.13-7.31,3.22-.48,6.57-1,9.82.05.52,1.83-.35,3.33-1.07,4.78-9.88,19.94-19.34,40.08-28.2,60.5A16.42,16.42,0,0,1,461.48,75c-32,21.12-55.89,50-76.87,81.52C364.48,186.72,348,219,334,252.45c-.77,1.84-1.55,3.68-2.23,5.55-2.25,6.11-2.27,6.23,3.73,8,8.91,2.62,17.86,5.08,26.82,7.53,2.25.61,4.52,1,6.53,3.14-6.42,14-13,28.14-19.33,42.36-1.4,3.13-3.11,3.61-6.22,2.71-10.19-2.94-20.45-5.64-30.69-8.43L262.3,295.61c-36.76-15.31-72.54-32.6-106.62-53.46-1.15,1.21-2.15,2.09-3,3.13-37.62,49.4-65.29,103.8-82.12,163.63a478.84,478.84,0,0,0-17.2,105.94c-1.34,17.54-.7,35.09-.24,52.65,5,76.92,26.46,148.86,65.51,215.42a412.69,412.69,0,0,0,31.21,46.3c4.91,6.25,5,6.1,11.76,2.34a768.66,768.66,0,0,1,99.06-46.47c3.28,2.26,3.81,6.06,5,9.39,3.82,10.85,7.36,21.81,11.13,32.69C277.7,829.66,279,832,278.28,834.75Zm-88.88-633c17.23,11,34.1,19.43,51.16,27.48,11.37,5.37,23,10.11,34.49,15.3,3.49,1.58,5.59,1,6.82-2.71.74-2.2,1.61-4.36,2.55-6.48,19.07-42.8,39.79-84.69,67.05-123,7.26-10.2,14.88-20.12,22.11-30.64C302.88,106.67,242.87,147.84,189.4,201.77Z"/><path class="cls-3" d="M1007.67,515.16c2.56,16.79,1.77,33.57-.19,50.34-16.94.07-33.88.2-50.82.22q-55.32,0-110.63,0c-9.85,0-9.87.1-10,10-.44,25.58-3.14,51-6.52,76.29A767.65,767.65,0,0,1,800,784.85c-14.22-5-28.42-10.07-42.65-15.05-1.85-.65-3.81-1-5.71-1.47,4.78-19.31,10.46-38.38,14.77-57.82,7.2-32.44,12.14-65.19,16-98.18,1.54-13.26.54-26.59,2.66-39.74.74-4.55-1.33-5.84-5.49-5.93-9-.19-17.93-.64-26.88-1.08-3.24-.16-6.59.74-10.78-1.38,5.87-7.72,11.47-15.31,17.31-22.71,6-7.57,11.35-15.86,18.47-22.18s10.4-15.07,16.67-21.82c6.54-7.05,12.2-14.91,18.22-22.44s11.86-14.89,18.73-23.53c.92,6.27,1.9,11,2.27,15.79q1.47,19.37,2.5,38.77c.47,8.67.33,8.78,9,8.79q66.35.07,132.69.08C987.72,515,997.69,515.09,1007.67,515.16Z"/><path class="cls-3" d="M262.3,295.61l50.31,17.69c-6.22,8.24-7,18.46-9.61,27.88-9.73,35.21-17.52,70.9-20.64,107.37-1.35,15.76-8.36,29.24-14.52,43.09-12,27-24.63,53.75-37,80.6-.8,1.73-1.8,3.36-2.73,5.09-2.68-1.61-1.76-3.8-1.78-5.51,0-4-2.1-5.22-5.66-5.15-3,.06-6,0-9,0q-72.83-.07-145.65-.11c-4.3,0-8.66-.46-12.86,1-.46-17.56-1.1-35.11.24-52.65l159.8.15c12,0,12,0,12.85-11.81.07-1,.08-2,.09-3,.4-29,4.75-57.63,8.87-86.22C240.8,373.8,250.65,334.48,262.3,295.61Z"/><path class="cls-3" d="M278.28,834.75c.76-2.77-.58-5.09-1.45-7.58-3.77-10.88-7.31-21.84-11.13-32.69-1.18-3.33-1.71-7.13-5-9.39.56-7.23-2.86-13.62-4.76-20.22-11.64-40.29-19.06-81.41-25-122.84-.85-5.91-1.35-11.87-2-17.81-.5-4.18.14-7.05,5.5-7q20,.22,39.92-.2c4.82-.1,6.08,1.93,6.58,6.42,2.38,21.11,5.37,42.13,9.45,63C295.1,710.93,301.37,735,308.14,759c2.53,8.95,2.76,8.82,11.62,6.6,18-4.52,36.07-9,54.11-13.44,1.25-.3,2.52-.93,3.93.14,1.56,2.16.24,4.27-.61,6.35-6.17,15.06-12.64,30-17.64,45.52-1.5,4.67-4.43,7.11-9,8.24-5.15,1.27-10.23,2.87-15.41,4-4.23,1-5.51,2.9-3.73,7.06,2.61,6.11,4.66,12.46,7.4,18.51,1.91,4.22,2.3,8.17.64,12.49-7.25,18.91-14.42,37.85-21.59,56.68-3.41-.26-3.72-3-4.78-4.89a473.82,473.82,0,0,1-29.53-61C282.16,841.66,281.32,837.61,278.28,834.75Z"/><path class="cls-3" d="M782,247.34q7.95,22.78,15.86,45.57a4.42,4.42,0,0,0,2.46,2.85c1.58,11.89,5.84,23.1,9.12,34.53,5.79,20.13,9.73,40.66,14.18,61.09,1.54,7.08.65,8-6.82,8.07-12,.1-24,0-35.94,0-7.87,0-8.09,0-9.66-7.64-4.76-23.11-10.95-45.86-17.13-68.61a35.14,35.14,0,0,1-1-3.84c-.8-5.31-3.22-5.89-8.33-4.4-26.46,7.7-53.09,14.81-80.29,19.54-2.59.45-5.1,1.34-8.14-.14,1.38-5.26,4.36-9.69,6.82-14.3,6.41-12,13.18-23.87,19.49-36a13.76,13.76,0,0,1,9.61-7.64c10.93-2.77,21.73-6.07,32.59-9.14,8.21-2.32,8.35-2.4,5.25-9.94-3.67-8.91-7.51-17.75-11.39-26.58-1.36-3.11-2.46-5.91-.47-9.36,9.13-15.79,17.35-32.1,27.7-48.27,6.9,7.22,9.6,16.16,13.82,24.12s7.91,16.11,11.54,24.31C775,230.1,778.4,238.75,782,247.34Z"/><path class="cls-3" d="M556.16,1022.75c-16.71,5-33.4,5.82-50-.28-.1-10-.29-20-.29-29.92,0-40.61.15-81.21-.1-121.82a25.3,25.3,0,0,1,5.94-17.25c13.84-17,27.28-34.39,40.88-51.62.63-.8,1.34-1.41,3.62-1Z"/><path class="cls-3" d="M750,769c-4.9,16.35-9.91,32.66-17.74,47.92-31.44-8.46-63-16.14-95.31-20.87-15.13-2.21-30.31-3.77-45.53-5-8.8-.74-17.58-1.63-27.2-2.52,3.91-8.26,9.48-14,14.22-20.24,5.62-7.42,11.92-14.33,17.45-21.81,3.36-4.54,7.18-6.09,12.75-5.65,15.92,1.25,31.64,3.83,47.38,6.34a763.77,763.77,0,0,1,86.52,19.2C745.07,767.05,747.51,768.11,750,769Z"/><polygon class="cls-3" points="304.48 1052.72 303.89 1053.23 304.45 1052.7 304.48 1052.72"/></g></g></svg>